<svg width="20" height="15" viewBox="0 0 20 15" fill="none" xmlns="http://www.w3.org/2000/svg">
<path d="M1.42857 2.85714H18.5714C19.36 2.85714 20 2.21714 20 1.42857C20 0.64 19.36 0 18.5714 0H1.42857C0.64 0 0 0.64 0 1.42857C0 2.21714 0.64 2.85714 1.42857 2.85714ZM18.5714 5.71429H1.42857C0.64 5.71429 0 6.35429 0 7.14286C0 7.93143 0.64 8.57143 1.42857 8.57143H18.5714C19.36 8.57143 20 7.93143 20 7.14286C20 6.35429 19.36 5.71429 18.5714 5.71429ZM18.5714 11.4286H1.42857C0.64 11.4286 0 12.0686 0 12.8571C0 13.6457 0.64 14.2857 1.42857 14.2857H18.5714C19.36 14.2857 20 13.6457 20 12.8571C20 12.0686 19.36 11.4286 18.5714 11.4286Z" fill="#005B96"/>
</svg>
