<svg width="20" height="20" viewBox="0 0 20 20" fill="none" xmlns="http://www.w3.org/2000/svg">
<g clip-path="url(#clip0_2_146)">
<path d="M17.5 19.9999H11.6667V14.5833H8.33333V19.9999H2.5V11.2499C2.5 11.0199 2.68625 10.8333 2.91667 10.8333C3.14708 10.8333 3.33333 11.0199 3.33333 11.2499V19.1666H7.5V13.7499H12.5V19.1666H16.6667V11.6666C16.6667 11.4366 16.8529 11.2499 17.0833 11.2499C17.3137 11.2499 17.5 11.4366 17.5 11.6666V19.9999Z" fill="white"/>
<path d="M19.5834 11.25C19.4797 11.25 19.3764 11.2116 19.2955 11.1346L10.0001 2.2433L0.704689 11.1346C0.538439 11.2933 0.274689 11.2879 0.115523 11.1216C-0.0436441 10.9554 -0.0373941 10.6916 0.128439 10.5325L10.0001 1.08997L19.8714 10.5321C20.0372 10.6912 20.0434 10.955 19.8843 11.1212C19.8026 11.2066 19.6934 11.25 19.5834 11.25Z" fill="white"/>
<path d="M16.2501 6.25C16.0197 6.25 15.8334 6.06333 15.8334 5.83333V3.33333H13.3334C13.103 3.33333 12.9167 3.14667 12.9167 2.91667C12.9167 2.68667 13.103 2.5 13.3334 2.5H16.6667V5.83333C16.6667 6.06333 16.4805 6.25 16.2501 6.25Z" fill="white"/>
</g>
<defs>
<clipPath id="clip0_2_146">
<rect width="20" height="20" fill="white"/>
</clipPath>
</defs>
</svg>
